<svg width="33" height="33" viewBox="0 0 33 33" xmlns="http://www.w3.org/2000/svg"><title>Group-4</title><g fill="none" fill-rule="evenodd"><path d="M0 0h33v33H0z"/><path d="M30.25 8.25v22A2.75 2.75 0 0 1 27.5 33h-22a2.75 2.75 0 0 1-2.75-2.75v-22A2.75 2.75 0 0 1 0 5.5V2.75A2.75 2.75 0 0 1 2.75 0h27.5A2.75 2.75 0 0 1 33 2.75V5.5a2.75 2.75 0 0 1-2.75 2.75zm-24.75 22h22v-22h-22v22zm24.75-27.5H2.75V5.5h27.5V2.75zm-11 16.5h-5.5a4.125 4.125 0 1 1 0-8.25h5.5a4.125 4.125 0 1 1 0 8.25z" fill="#D18EE2"/></g></svg>