<svg width="33" height="33" viewBox="0 0 33 33" xmlns="http://www.w3.org/2000/svg"><title>icon_n9</title><g fill="none" fill-rule="evenodd"><path d="M0 0h33v33H0z"/><path d="M14.881 32.998C6.953 32.998 0 25.916 0 17.842 0 9.923 6.402 3.233 14.025 3.233c.636 0 1.118.516 1.118 1.154v12.248c0 1.118 1.22 1.22 1.22 1.22h12.249c.638 0 1.153.484 1.153 1.12 0 7.62-6.816 14.023-14.884 14.023zm16.69-18.238H18.941a1.044 1.044 0 0 1-1.057-1.057V1.075C17.885.48 18.357 0 18.951 0 27.02 0 32.65 5.626 32.65 13.694a1.07 1.07 0 0 1-1.08 1.066z" fill="#D18EE2"/></g></svg>