<svg width="33" height="33" viewBox="0 0 33 33" xmlns="http://www.w3.org/2000/svg"><title>Group</title><g fill="none" fill-rule="evenodd"><path d="M0 0h33v33H0z"/><path d="M16.5 33C7.387 33 0 25.613 0 16.5S7.387 0 16.5 0 33 7.387 33 16.5 25.613 33 16.5 33zm0-30.25C8.906 2.75 2.75 8.906 2.75 16.5S8.906 30.25 16.5 30.25s13.75-6.156 13.75-13.75A13.75 13.75 0 0 0 16.5 2.75zm11 13.76v-.01h-2.75a8.25 8.25 0 1 0-16.5 0H5.5c0-6.075 4.925-11 11-11s11 4.925 11 11v.01zm-12.308 1.597a1.323 1.323 0 0 1-.048-.242v-5.479a1.356 1.356 0 0 1 2.712 0v5.48a1.286 1.286 0 0 1-.048.24 4.125 4.125 0 1 1-2.616.001zm1.308 5.268a1.375 1.375 0 1 0 0-2.75 1.375 1.375 0 0 0 0 2.75z" fill="#FFF"/></g></svg>