<svg width="33" height="33" viewBox="0 0 33 32" xmlns="http://www.w3.org/2000/svg"><title>Group-3</title><g fill="none" fill-rule="evenodd"><path d="M0-1h33v33H0z"/><g fill="#FFF"><path d="M30.674 15.922L29.126.543S28.593 0 27.553 0c-1.041 0-1.525.543-1.525.543l-1.549 15.379h6.195zM22.757 15.922L21.674 5.156s-.372-.38-1.102-.38c-.729 0-1.068.38-1.068.38l-1.082 10.766h4.335z"/><path d="M28.652 23.644c0 .426-.348.77-.774.77h-4.646a.771.771 0 0 1-.774-.77v-2.306a.77.77 0 0 1 .774-.768h4.646a.77.77 0 0 1 .774.768v2.306zm-9.292 0c0 .426-.348.77-.774.77h-4.647a.771.771 0 0 1-.774-.77v-2.306a.77.77 0 0 1 .774-.768h4.647a.77.77 0 0 1 .774.768v2.306zm-9.293 0c0 .426-.348.77-.774.77H4.646a.771.771 0 0 1-.774-.77v-2.306a.77.77 0 0 1 .774-.768h4.647a.77.77 0 0 1 .774.768v2.306zm21.683-6.807l-14.714-.01V14.52a.765.765 0 0 0-.34-.637.77.77 0 0 0-.722-.077L9.292 16.46v-1.94a.77.77 0 0 0-1.062-.713L.487 16.88a.769.769 0 0 0-.487.714v13.408c0 .424.347.768.774.768H31.75a.771.771 0 0 0 .775-.768V17.606a.77.77 0 0 0-.774-.77z"/></g></g></svg>