<svg width="33" height="33" viewBox="0 0 33 33" xmlns="http://www.w3.org/2000/svg"><title>Group-8</title><g fill="none" fill-rule="evenodd"><path d="M0 0h33v33H0z"/><path d="M32.892 18.411a2.017 2.017 0 0 1-1.993 1.788h-.275a2.218 2.218 0 0 0-1.472 3.867c.785.723.88 1.928.22 2.766a16.281 16.281 0 0 1-2.68 2.638 2.022 2.022 0 0 1-1.238.43 2.053 2.053 0 0 1-1.499-.655 2.363 2.363 0 0 0-1.719-.717 2.073 2.073 0 0 0-.77.145 2.247 2.247 0 0 0-1.374 2.145A2.03 2.03 0 0 1 18.29 32.9c-1.234.137-2.479.133-3.712-.01a2.012 2.012 0 0 1-1.774-2.127 2.25 2.25 0 0 0-1.36-2.18 2.062 2.062 0 0 0-.785-.15 2.373 2.373 0 0 0-1.718.716 2.033 2.033 0 0 1-2.778.22 16.298 16.298 0 0 1-2.598-2.645 2.006 2.006 0 0 1 .22-2.736 2.254 2.254 0 0 0 .563-2.487 2.2 2.2 0 0 0-1.993-1.375h-.083A2.161 2.161 0 0 1 .113 18.33a15.573 15.573 0 0 1 0-3.752 1.996 1.996 0 0 1 2.063-1.788 2.38 2.38 0 0 0 2.241-1.355c.36-.871.134-1.874-.564-2.507a2.04 2.04 0 0 1-.22-2.764 16.537 16.537 0 0 1 2.668-2.64 2.07 2.07 0 0 1 1.25-.43c.57.001 1.114.24 1.5.66.452.46 1.073.717 1.718.71a2.1 2.1 0 0 0 .77-.137 2.25 2.25 0 0 0 1.375-2.15A2.028 2.028 0 0 1 14.715.1a16.512 16.512 0 0 1 3.713.01 2.013 2.013 0 0 1 1.774 2.125 2.233 2.233 0 0 0 1.36 2.182c.25.1.516.15.784.149a2.377 2.377 0 0 0 1.72-.714 2.024 2.024 0 0 1 2.763-.222c.97.777 1.846 1.663 2.612 2.641.665.83.568 2.035-.22 2.75a2.217 2.217 0 0 0 1.526 3.86 2.159 2.159 0 0 1 2.145 1.787 16.32 16.32 0 0 1 0 3.743zm-2.722-3.194a4.422 4.422 0 0 1-3.08-7.49 13.226 13.226 0 0 0-1.787-1.808 4.609 4.609 0 0 1-3.149 1.238 4.209 4.209 0 0 1-1.636-.32 4.437 4.437 0 0 1-2.709-4.053 13.79 13.79 0 0 0-2.544 0 4.154 4.154 0 0 1-2.846 3.712 4.01 4.01 0 0 1-1.512.574 4.609 4.609 0 0 1-3.135-1.225 13.337 13.337 0 0 0-1.843 1.81 4.436 4.436 0 0 1 .908 4.791 4.537 4.537 0 0 1-4.042 2.703 14.75 14.75 0 0 0-.014 2.586 4.415 4.415 0 0 1 3.08 7.492 14.919 14.919 0 0 0 1.787 1.81 4.655 4.655 0 0 1 3.149-1.238 4.228 4.228 0 0 1 1.65.322 4.428 4.428 0 0 1 2.708 4.05c.846.078 1.698.078 2.544 0a4.465 4.465 0 0 1 2.736-3.979 4.262 4.262 0 0 1 1.609-.308 4.618 4.618 0 0 1 3.149 1.227 14.496 14.496 0 0 0 1.842-1.811 4.41 4.41 0 0 1-.907-4.79 4.474 4.474 0 0 1 4.042-2.715c.083-.86.083-1.724 0-2.584v.006zm-13.667 6.77a5.508 5.508 0 1 1 5.486-5.51 5.5 5.5 0 0 1-5.486 5.51z" fill="#D18EE2"/></g></svg>