<svg width="33" height="33" viewBox="0 0 33 33" xmlns="http://www.w3.org/2000/svg"><title>Group-8</title><g fill="none" fill-rule="evenodd"><path d="M0 0h33v33H0z"/><path d="M32.894 18.411a2.017 2.017 0 0 1-1.994 1.788h-.274a2.218 2.218 0 0 0-1.472 3.867c.784.723.88 1.928.22 2.766a16.282 16.282 0 0 1-2.681 2.638 2.023 2.023 0 0 1-1.238.43 2.053 2.053 0 0 1-1.499-.655 2.364 2.364 0 0 0-1.718-.717 2.074 2.074 0 0 0-.77.145 2.247 2.247 0 0 0-1.376 2.145 2.03 2.03 0 0 1-1.8 2.082 16.44 16.44 0 0 1-3.713-.01 2.012 2.012 0 0 1-1.774-2.127 2.25 2.25 0 0 0-1.361-2.18 2.063 2.063 0 0 0-.784-.15 2.373 2.373 0 0 0-1.719.716 2.034 2.034 0 0 1-2.777.22 16.298 16.298 0 0 1-2.6-2.645 2.006 2.006 0 0 1 .22-2.736 2.254 2.254 0 0 0 .565-2.487 2.2 2.2 0 0 0-1.994-1.375h-.083A2.162 2.162 0 0 1 .113 18.33a15.572 15.572 0 0 1 0-3.752 1.997 1.997 0 0 1 2.063-1.788 2.38 2.38 0 0 0 2.241-1.355c.36-.871.134-1.874-.564-2.507a2.04 2.04 0 0 1-.22-2.764 16.537 16.537 0 0 1 2.668-2.64 2.07 2.07 0 0 1 1.251-.43c.57.001 1.113.24 1.5.66.452.46 1.072.717 1.718.71.263.003.524-.043.77-.137a2.25 2.25 0 0 0 1.375-2.15A2.028 2.028 0 0 1 14.716.1a16.514 16.514 0 0 1 3.713.01 2.013 2.013 0 0 1 1.773 2.125 2.233 2.233 0 0 0 1.362 2.182c.25.1.515.15.784.149a2.377 2.377 0 0 0 1.718-.714 2.024 2.024 0 0 1 2.764-.222c.97.777 1.846 1.663 2.613 2.641.664.83.568 2.035-.22 2.75a2.217 2.217 0 0 0 1.526 3.86 2.159 2.159 0 0 1 2.145 1.787 16.32 16.32 0 0 1 0 3.743zm-2.723-3.194a4.422 4.422 0 0 1-3.08-7.49 13.226 13.226 0 0 0-1.787-1.808 4.61 4.61 0 0 1-3.149 1.238 4.209 4.209 0 0 1-1.636-.32 4.437 4.437 0 0 1-2.71-4.053 13.791 13.791 0 0 0-2.543 0 4.154 4.154 0 0 1-2.846 3.712 4.01 4.01 0 0 1-1.513.574 4.61 4.61 0 0 1-3.135-1.225 13.338 13.338 0 0 0-1.842 1.81 4.436 4.436 0 0 1 .907 4.791 4.538 4.538 0 0 1-4.042 2.703 14.75 14.75 0 0 0-.014 2.586 4.415 4.415 0 0 1 3.08 7.492 14.919 14.919 0 0 0 1.788 1.81 4.656 4.656 0 0 1 3.148-1.238 4.228 4.228 0 0 1 1.65.322 4.428 4.428 0 0 1 2.71 4.05c.845.078 1.697.078 2.543 0a4.465 4.465 0 0 1 2.736-3.979 4.263 4.263 0 0 1 1.609-.308 4.619 4.619 0 0 1 3.149 1.227 14.497 14.497 0 0 0 1.842-1.811 4.41 4.41 0 0 1-.907-4.79 4.474 4.474 0 0 1 4.042-2.715c.083-.86.083-1.724 0-2.584v.006zm-13.667 6.77a5.508 5.508 0 1 1 5.486-5.51 5.5 5.5 0 0 1-5.486 5.51z" fill="#FFF"/></g></svg>