<svg width="33" height="33" viewBox="0 0 33 33" xmlns="http://www.w3.org/2000/svg"><title>Group-11</title><g fill="none" fill-rule="evenodd"><path d="M0-1h33v33H0z"/><path d="M16.623 6.717c1.95 0 3.548-1.493 3.548-3.359C20.171 1.493 18.573 0 16.623 0s-3.548 1.493-3.548 3.358c0 1.866 1.599 3.359 3.548 3.359zm.688 8.073h10.416V17.828h-1.375v-2.35l.687.687H6.207l.688-.687v2.35H5.52V14.79h10.417v-1.664h1.374v1.664zm12.752 9.887a3.11 3.11 0 0 0 .402-1.53c0-1.84-1.602-3.304-3.549-3.304-1.946 0-3.548 1.465-3.548 3.304 0 .554.145 1.074.402 1.53a8.459 8.459 0 0 0-1.284 1.28c-1.03 1.26-1.653 2.733-1.653 4.4v.688h6.083V29.67H21.52l.688.688c0-1.319.5-2.5 1.343-3.532a7.315 7.315 0 0 1 1.131-1.112c.612.462 1.39.737 2.234.737.844 0 1.623-.275 2.235-.737a7.314 7.314 0 0 1 1.131 1.112c.843 1.032 1.343 2.213 1.343 3.532l.687-.688h-5.396v1.375H33v-.687c0-1.668-.624-3.142-1.653-4.402a8.457 8.457 0 0 0-1.284-1.28zm-20.832 0a3.11 3.11 0 0 0 .402-1.53c0-1.84-1.602-3.304-3.549-3.304-1.946 0-3.548 1.465-3.548 3.304 0 .554.145 1.074.402 1.53a8.46 8.46 0 0 0-1.284 1.279C.624 27.216 0 28.69 0 30.358v.687H6.084V29.67H.687l.688.688c0-1.319.5-2.5 1.344-3.532a7.316 7.316 0 0 1 1.131-1.112c.612.462 1.39.737 2.234.737.844 0 1.623-.275 2.235-.737a7.315 7.315 0 0 1 1.131 1.112c.843 1.032 1.343 2.213 1.343 3.532l.688-.688H6.084v1.375H12.168v-.687c0-1.668-.624-3.142-1.653-4.402a8.459 8.459 0 0 0-1.284-1.279zm7.392-19.335c-1.21 0-2.173-.9-2.173-1.984s.963-1.983 2.173-1.983 2.173.899 2.173 1.983c0 1.085-.963 1.984-2.173 1.984zm0 4.69h-5.396l.687.688c0-1.353.502-2.563 1.348-3.62.3-.374.622-.702.943-.978.188-.162.33-.269.401-.316l-.763-1.144c-.43.287-1.043.815-1.654 1.579-1.028 1.283-1.65 2.783-1.65 4.48v.687h6.085v-1.375zm0 1.376H22.708v-.688c0-1.696-.621-3.196-1.649-4.48-.61-.763-1.224-1.291-1.653-1.578l-.764 1.144c.072.047.213.154.402.316.32.276.642.604.942.978.846 1.057 1.347 2.267 1.347 3.62l.688-.687h-5.396v1.375z" fill="#FFF"/></g></svg>