<svg width="33" height="33" viewBox="0 0 33 33" xmlns="http://www.w3.org/2000/svg"><title>icon_fb</title><g fill="#FFF" fill-rule="evenodd"><path d="M6.6 14.3c2.567 5.133 6.967 9.35 12.1 12.1l4.033-4.033c.55-.55 1.284-.734 1.834-.367 2.016.733 4.216 1.1 6.6 1.1 1.1 0 1.833.733 1.833 1.833v6.234c0 1.1-.733 1.833-1.833 1.833C13.933 33 0 19.067 0 1.833 0 .733.733 0 1.833 0H8.25c1.1 0 1.833.733 1.833 1.833 0 2.2.367 4.4 1.1 6.6.184.55 0 1.284-.366 1.834L6.6 14.3z"/><path d="M16.5 33H0V0h33v33H22V22h5.5v-5.5H22v-4.051C22 9.625 27.5 11 27.5 11V5.5c-5.5 0-6.973.117-8.25 1.375-1.277 1.258-2.75 3.29-2.75 5.574V16.5H11V22h5.5s-.308 6.643 0 11z"/></g></svg>