<svg width="33" height="33" viewBox="0 0 33 33" xmlns="http://www.w3.org/2000/svg"><title>icon_linkedin</title><path d="M0 3.778c0-1.09.38-1.992 1.138-2.706C1.896.357 2.887 0 4.109 0c1.223 0 2.203.357 2.939 1.072.736.714 1.112 1.616 1.127 2.706.015 1.075-.357 1.974-1.116 2.696-.759.721-1.756 1.082-2.994 1.082h-.044c-1.208 0-2.18-.36-2.916-1.082C.368 5.752 0 4.854 0 3.778zm.42 28.656V10.54h7.29v21.895H.42zm10.578.432c.03-5.877 0-11.744 0-15.397V10.87L19 10.54v3.181c.25-.47.552-.883.862-1.237.309-.353.725-.736 1.248-1.149.523-.412 1.163-.733 1.922-.96.759-.23 1.602-.343 2.53-.343 2.519 0 4.544.836 6.076 2.507 1.532 1.672 1.355 3.905 1.355 7.13v13.198h-6.599l.273-12.142c0-1.546-.299-2.758-.895-3.634-.597-.877-1.528-1.315-2.795-1.315-.928 0-1.705.254-2.331.762-.626.509-1.641 2.38-1.95 3.132-.163.441 0 13.197 0 13.197h-7.7z" fill="#FFF" fill-rule="evenodd"/></svg>