<svg width="33" height="33" viewBox="0 0 33 33" xmlns="http://www.w3.org/2000/svg"><title>icon_twitter</title><path d="M0 26.783c3.18 2.02 6.639 3.03 10.377 3.03 2.406 0 4.662-.382 6.768-1.145 2.105-.762 3.91-1.783 5.414-3.061a20.325 20.325 0 0 0 3.883-4.415 19.456 19.456 0 0 0 2.417-5.22 19.42 19.42 0 0 0 .79-5.431c0-.387-.011-.677-.033-.87A13.153 13.153 0 0 0 33 6.158a14.337 14.337 0 0 1-3.9 1.096c1.462-.86 2.46-2.116 2.998-3.77-1.397.816-2.836 1.364-4.319 1.643C26.47 3.709 24.825 3 22.85 3c-1.87 0-3.465.66-4.786 1.982-1.321 1.321-1.982 2.916-1.982 4.786 0 .623.054 1.138.161 1.546A19.16 19.16 0 0 1 8.443 9.22a19.184 19.184 0 0 1-6.187-4.995A6.703 6.703 0 0 0 1.32 7.64c0 2.449.978 4.329 2.933 5.64-1.01-.022-2.084-.302-3.223-.839v.065c0 1.611.537 3.045 1.612 4.302 1.074 1.257 2.395 2.036 3.963 2.337-.623.171-1.17.257-1.643.257-.28 0-.698-.043-1.257-.129a6.88 6.88 0 0 0 2.4 3.352 6.43 6.43 0 0 0 3.916 1.353c-2.492 1.934-5.295 2.9-8.41 2.9A12.99 12.99 0 0 1 0 26.784z" fill="#FFF" fill-rule="evenodd"/></svg>