<svg width="33" height="33" viewBox="0 0 33 33" xmlns="http://www.w3.org/2000/svg"><title>icon_edit</title><path d="M0 3.997A4.002 4.002 0 0 1 3.997 0h25.006A4.002 4.002 0 0 1 33 3.997v25.006A4.002 4.002 0 0 1 29.003 33H3.997A4.002 4.002 0 0 1 0 29.003V3.997zm18.987 7.371l3.35 2.802-8.297 9.922-3.35-2.801 8.297-9.923zm-9.281 14.65l3.8-1.162-3.35-2.851-.45 4.013zM20.143 9.879l3.35 2.801-.598.717-3.35-2.802.598-.716zm1.742-2.114l3.35 2.8-1.106 1.323-3.35-2.8 1.106-1.323z" fill="#89A" fill-rule="evenodd"/></svg>