<svg width="64" height="33" viewBox="0 0 64 33" xmlns="http://www.w3.org/2000/svg"><title>icon_toggle_merged</title><g transform="translate(0 8)" fill="none" fill-rule="evenodd"><rect fill="#65B32E" width="31.83" height="17" rx="8"/><path d="M7.036 7.635a1.028 1.028 0 0 0-.795-.359c-.314 0-.579.12-.794.359-.216.24-.324.529-.324.868 0 .339.108.627.324.865.215.237.48.356.794.356.315 0 .58-.119.795-.356.215-.238.323-.526.323-.865 0-.34-.108-.629-.323-.868zm-.797 2.829A1.925 1.925 0 0 1 4.832 9.9c-.38-.376-.57-.842-.57-1.401s.19-1.025.57-1.4c.381-.376.85-.564 1.407-.564.556 0 1.025.188 1.406.563.38.376.57.842.57 1.401s-.19 1.025-.57 1.4c-.381.376-.85.564-1.406.564zm5.323-3.84h.84v3.802h-.84L9.768 8.043v2.383h-.841V6.623h.787l1.848 2.448V6.623z" fill="#FFF"/><rect fill="#89A" transform="matrix(-1 0 0 1 95.53 0)" x="31.85" width="31.83" height="17" rx="8"/><path d="M52.565 8.006a.954.954 0 0 0-.734-.329c-.291 0-.536.11-.735.33-.2.218-.299.483-.299.794 0 .31.1.574.299.792.2.217.444.326.735.326.29 0 .535-.109.734-.326.2-.218.3-.482.3-.792 0-.31-.1-.576-.3-.795zm-.737 2.59c-.515 0-.948-.171-1.3-.515A1.72 1.72 0 0 1 50 8.798c0-.511.176-.939.528-1.282a1.789 1.789 0 0 1 1.3-.516c.515 0 .948.172 1.3.516.352.343.528.77.528 1.282s-.176.94-.528 1.283a1.789 1.789 0 0 1-1.3.515zm4.877-3.516v.682H55.09v.752h1.534v.683H55.09v1.365h-.777V7.08h2.39zm3.048 0v.682H58.14v.752h1.534v.683H58.14v1.365h-.777V7.08h2.391z" fill="#FFF"/></g></svg>