<svg width="33" height="33" viewBox="0 0 33 33" xmlns="http://www.w3.org/2000/svg"><title>icon_search</title><g fill="none" fill-rule="evenodd"><path d="M0 0h33v33H0z"/><path d="M31.406 33a1.58 1.58 0 0 1-1.124-.46l-7.406-7.353C17 29.825 8.523 29.074 3.556 23.475c-4.968-5.598-4.7-14.098.612-19.373 5.311-5.274 13.819-5.49 19.39-.49 5.571 4.999 6.27 13.474 1.592 19.317l7.39 7.357a1.577 1.577 0 0 1-.015 2.24c-.295.301-.698.472-1.119.474zM14.033 3.04c-6.105 0-11.055 4.945-11.055 11.046 0 6.1 4.95 11.046 11.055 11.046 6.105 0 11.054-4.946 11.054-11.046 0-6.101-4.95-11.047-11.054-11.047z" fill="#EB8B2D"/></g></svg>