<svg width="33" height="33" viewBox="0 0 33 33" xmlns="http://www.w3.org/2000/svg"><title>icon_mendatory</title><path d="M31.093 14.593l-8.396-.66 5.463-6.38c.733-.733.733-1.98 0-2.713-.733-.733-1.98-.733-2.713 0l-6.38 5.463-.66-8.396A1.894 1.894 0 0 0 16.5 0a1.894 1.894 0 0 0-1.907 1.907l-.66 8.396-6.38-5.463c-.733-.733-1.98-.733-2.713 0-.733.733-.733 1.98 0 2.713l5.463 6.38-8.396.66A1.894 1.894 0 0 0 0 16.5c0 .513.22 1.027.55 1.357.33.33.843.55 1.357.55l8.396.66-5.463 6.38c-.733.733-.733 1.98 0 2.713.367.367.88.55 1.357.55.476 0 .99-.183 1.356-.55l6.38-5.463.66 8.396c0 .514.22 1.027.55 1.357.33.33.844.55 1.357.55a1.894 1.894 0 0 0 1.907-1.907l.66-8.396 6.38 5.463c.366.367.88.55 1.356.55.477 0 .99-.183 1.357-.55.733-.733.733-1.98 0-2.713l-5.463-6.38 8.396-.66A1.894 1.894 0 0 0 33 16.5a1.894 1.894 0 0 0-1.907-1.907z" fill="#CD1719" fill-rule="evenodd"/></svg>