<svg width="222" height="222" viewBox="0 0 222 222" xmlns="http://www.w3.org/2000/svg" xmlns:xlink="http://www.w3.org/1999/xlink"><title>F6086375-01</title><defs><path id="a" d="M.397.313h221.374v221.374H.397z"/><mask id="b" x="0" y="0" width="221.374" height="221.374" fill="#fff"><use xlink:href="#a"/></mask><mask id="c" x="0" y="0" width="221.374" height="221.374" fill="#fff"><use xlink:href="#a"/></mask></defs><g transform="translate(0 .231)" fill="none" fill-rule="evenodd"><mask id="d" fill="#fff"><use xlink:href="#a"/></mask><g stroke="#F1F0F4" mask="url(#b)" stroke-width="4"><use mask="url(#c)" xlink:href="#a"/></g><g mask="url(#d)"><path stroke="#FFF" stroke-width="5" fill="#F2F0F4" d="M68.798 75.13v82.492h87.763V75.13z"/><path d="M152.002 138.434l-1.565.002c-.057.002-5.312.285-10.286-3.356-1.765-1.294-3.033-2.79-4.26-4.24-2.3-2.716-4.674-5.517-9.628-5.992l-1.518-.07c-4.954.544-7.327 3.346-9.627 6.063-1.227 1.448-2.495 2.945-4.26 4.239-4.917 3.596-10.25 3.36-10.429 3.35H73.358V79.683h78.644v58.752z" fill="#FFF"/><path d="M96.736 112.404c5.5 0 9.974-4.465 9.974-9.955s-4.473-9.955-9.974-9.955c-5.5 0-9.972 4.465-9.972 9.955s4.474 9.955 9.972 9.955z" stroke="#FFF" stroke-width="2" fill="#F2F0F4"/></g></g></svg>