<svg width="33" height="33" viewBox="0 0 33 33" xmlns="http://www.w3.org/2000/svg"><title>icon_n10</title><g fill="none" fill-rule="evenodd"><path d="M0-2h33v33H0z"/><path d="M25.198 13.657c2.162-1.568 3.677-4.875 3.677-7.418C28.875 2.795 26.103 0 22.687 0c-3.013 0-5.519 2.173-6.07 5.046a8.304 8.304 0 0 1 1.946 5.353c0 .471-.049.955-.121 1.438.507.716 1.088 1.35 1.732 1.82-.955.414-1.792.744-2.542 1.028a13.35 13.35 0 0 1-1.253 2.323l.48.179c3.935 1.478 5.828 2.425 5.828 7.771H33v-4.16c0-5.244-1.644-4.46-7.802-7.14m-4.573 11.3v4.16H0v-4.16c0-5.244 1.64-4.46 7.798-7.141-2.162-1.568-3.673-4.875-3.673-7.418 0-3.444 2.768-6.24 6.188-6.24 3.415 0 6.187 2.796 6.187 6.24 0 2.543-1.515 5.85-3.677 7.418 6.158 2.68 7.802 1.897 7.802 7.141" fill="#D18EE2"/></g></svg>