<svg width="33" height="33" viewBox="0 0 33 33" xmlns="http://www.w3.org/2000/svg"><title>icon_n10</title><g fill="none" fill-rule="evenodd"><path d="M0-2h33v33H0z"/><path d="M25.2 13.658c2.162-1.568 3.677-4.875 3.677-7.418 0-3.444-2.772-6.24-6.188-6.24-3.013 0-5.52 2.174-6.071 5.046a8.305 8.305 0 0 1 1.946 5.354c0 .471-.048.955-.12 1.438.507.716 1.087 1.35 1.732 1.82a57.22 57.22 0 0 1-2.542 1.028 13.351 13.351 0 0 1-1.253 2.323l.48.18c3.935 1.478 5.828 2.424 5.828 7.771h10.314V20.8c0-5.245-1.644-4.46-7.803-7.142M20.627 24.96v4.16H0v-4.16c0-5.245 1.64-4.46 7.799-7.142-2.163-1.568-3.674-4.875-3.674-7.418 0-3.444 2.768-6.24 6.188-6.24 3.416 0 6.188 2.796 6.188 6.24 0 2.543-1.515 5.85-3.677 7.418 6.159 2.681 7.803 1.897 7.803 7.142" fill="#FFF"/></g></svg>