<svg width="33" height="33" viewBox="0 0 33 33" xmlns="http://www.w3.org/2000/svg"><title>pricing-label-purple</title><g fill="none" fill-rule="evenodd"><path d="M29.658.015a.614.614 0 0 0-.74.458c-.835 3.345-2.107 3.466-4.249 3.686-1.31.13-2.974.31-4.752 1.342-.96.553-1.658 1.51-2.212 2.55l-1.948-1.12-5.21 1.298L0 25.01l12.876 7.413 10.537-16.818-1.242-4.982-3.421-1.97c.467-.9 1.039-1.709 1.75-2.121 1.527-.89 2.952-1.05 4.224-1.171 2.229-.203 4.333-.414 5.395-4.638.09-.297-.118-.637-.461-.708zM14.561 19.106c-.39-.256-1.073-.712-2.256-.888-1.06-.167-1.484.252-1.536.697-.081.49.44.948 1.714 1.65 1.825.956 2.437 1.94 2.184 3.375-.262 1.398-1.466 2.443-3.406 2.496l-.283 1.639-1.603-.228.272-1.518c-1.068-.204-2.076-.659-2.636-1.107l.82-1.772a5.42 5.42 0 0 0 2.588 1.079c.935.159 1.635-.133 1.766-.754.091-.61-.344-1.05-1.504-1.624-1.635-.847-2.687-1.8-2.414-3.318.261-1.398 1.446-2.36 3.223-2.411l.273-1.518 1.603.227-.224 1.389c1.069.204 1.763.54 2.295.878l-.876 1.708zm3.71-9.275c1.187.684 1.565 2.197.828 3.322-.388.567-.937.978-1.55 1.131-.612.153-1.319.094-1.898-.271a2.349 2.349 0 0 1-.828-3.322c.349-.557.936-.978 1.549-1.131.23-.057.43-.068.631-.079-.167.473-.305.9-.414 1.28a1.158 1.158 0 0 0-.721.532 1.182 1.182 0 0 0-.133.935c.082.332.271.598.556.763.285.164.62.198.964.112.345-.086.624-.273.798-.552.175-.279.216-.602.133-.935a1.248 1.248 0 0 0-.347-.58c.117-.342.255-.769.431-1.205z" fill="#D18EE2"/><path d="M-2 0h33v33H-2z"/></g></svg>