<svg width="33" height="33" viewBox="0 0 33 33" xmlns="http://www.w3.org/2000/svg"><title>Group-7</title><g fill="none" fill-rule="evenodd"><path d="M0 0h33v33H0z"/><path d="M30.25 33H22a2.75 2.75 0 0 1-2.75-2.75V22A2.75 2.75 0 0 1 22 19.25h8.25A2.75 2.75 0 0 1 33 22v8.25A2.75 2.75 0 0 1 30.25 33zm0-11H22v8.25h8.25V22zM11 13.75H2.75A2.75 2.75 0 0 1 0 11V2.75A2.75 2.75 0 0 1 2.75 0H11a2.75 2.75 0 0 1 2.75 2.75V11A2.75 2.75 0 0 1 11 13.75zm15.206-.162a6.794 6.794 0 1 0 0-13.588 6.794 6.794 0 0 0 0 13.588zM6.794 19.412L13.588 33H0l6.794-13.588z" fill="#FFF"/></g></svg>