<svg width="33" height="33" viewBox="0 0 33 33" xmlns="http://www.w3.org/2000/svg"><title>Group-2</title><g fill="none" fill-rule="evenodd"><path d="M0 0h33v33H0z"/><path d="M9.9 26.4a3.31 3.31 0 0 0-3.3 3.3A3.31 3.31 0 0 0 9.9 33a3.31 3.31 0 0 0 3.3-3.3 3.31 3.31 0 0 0-3.3-3.3zM0 0v3.3h3.3l5.94 12.54-2.31 3.96c-.165.495-.33 1.155-.33 1.65a3.31 3.31 0 0 0 3.3 3.3h19.8v-3.3H10.56a.355.355 0 0 1-.33-.33v-.165l1.485-2.805h12.21c1.32 0 2.31-.66 2.805-1.65l5.94-10.725c.33-.33.33-.495.33-.825 0-.99-.66-1.65-1.65-1.65H6.93L5.445 0H0zm26.4 26.4a3.31 3.31 0 0 0-3.3 3.3 3.31 3.31 0 0 0 3.3 3.3 3.31 3.31 0 0 0 3.3-3.3 3.31 3.31 0 0 0-3.3-3.3z" fill="#D18EE2"/></g></svg>