<svg width="33" height="33" viewBox="0 0 33 33" xmlns="http://www.w3.org/2000/svg" xmlns:xlink="http://www.w3.org/1999/xlink"><title>icon_on</title><defs><rect id="a" x="15" y=".5" width="16" height="16" rx="16"/><filter x="-50%" y="-50%" width="200%" height="200%" filterUnits="objectBoundingBox" id="b"><feOffset dy="1" in="SourceAlpha" result="shadowOffsetOuter1"/><feGaussianBlur stdDeviation="1" in="shadowOffsetOuter1" result="shadowBlurOuter1"/><feComposite in="shadowBlurOuter1" in2="SourceAlpha" operator="out" result="shadowBlurOuter1"/><feColorMatrix values="0 0 0 0 0 0 0 0 0 0 0 0 0 0 0 0 0 0 0.264351223 0" in="shadowBlurOuter1"/></filter></defs><g transform="translate(0 8)" fill="none" fill-rule="evenodd"><rect fill="#65B32E" width="31.83" height="17" rx="8"/><path d="M7.036 7.635a1.028 1.028 0 0 0-.795-.359c-.314 0-.579.12-.794.359-.216.24-.324.529-.324.868 0 .339.108.627.324.865.215.237.48.356.794.356.315 0 .58-.119.795-.356.215-.238.323-.526.323-.865 0-.34-.108-.629-.323-.868zm-.797 2.829A1.925 1.925 0 0 1 4.832 9.9c-.38-.376-.57-.842-.57-1.401s.19-1.025.57-1.4c.381-.376.85-.564 1.407-.564.556 0 1.025.188 1.406.563.38.376.57.842.57 1.401s-.19 1.025-.57 1.4c-.381.376-.85.564-1.406.564zm5.323-3.84h.84v3.802h-.84L9.768 8.043v2.383h-.841V6.623h.787l1.848 2.448V6.623z" fill="#FFF"/><use stroke="#EEE" mask="url(#mask-2)" stroke-width="2" fill="#FFF" xlink:href="#a" filter="url(#b)"/><use stroke="#EEE" mask="url(#mask-2)" stroke-width="2" fill="#FFF" xlink:href="#a"/></g></svg>