<svg width="33" height="33" viewBox="0 0 33 33" xmlns="http://www.w3.org/2000/svg" xmlns:xlink="http://www.w3.org/1999/xlink"><title>icon_off</title><defs><rect id="a" x="15" y=".5" width="16" height="16" rx="16"/><filter x="-50%" y="-50%" width="200%" height="200%" filterUnits="objectBoundingBox" id="b"><feOffset dy="1" in="SourceAlpha" result="shadowOffsetOuter1"/><feGaussianBlur stdDeviation="1" in="shadowOffsetOuter1" result="shadowBlurOuter1"/><feComposite in="shadowBlurOuter1" in2="SourceAlpha" operator="out" result="shadowBlurOuter1"/><feColorMatrix values="0 0 0 0 0 0 0 0 0 0 0 0 0 0 0 0 0 0 0.264351223 0" in="shadowBlurOuter1"/></filter></defs><g transform="matrix(-1 0 0 1 33 8)" fill="none" fill-rule="evenodd"><rect fill="#89A" width="31.83" height="17" rx="8"/><path d="M10.417 7.708c.2-.22.444-.329.735-.329.29 0 .535.11.734.329.2.22.3.484.3.794 0 .311-.1.575-.3.792a.958.958 0 0 1-.734.327.958.958 0 0 1-.735-.327 1.13 1.13 0 0 1-.299-.792c0-.31.1-.575.299-.794zm.737 2.59c.515 0 .948-.172 1.3-.515a1.72 1.72 0 0 0 .528-1.283 1.72 1.72 0 0 0-.528-1.283 1.789 1.789 0 0 0-1.3-.515c-.515 0-.948.172-1.3.515A1.72 1.72 0 0 0 9.326 8.5c0 .511.176.939.528 1.283.352.343.785.515 1.3.515zM6.278 6.782v.682H7.89v.752H6.357v.682h1.534v1.365h.778V6.782H6.278zm-3.049 0v.682h1.614v.752H3.309v.682h1.534v1.365h.777V6.782H3.23z" fill="#FFF"/><use stroke="#EEE" mask="url(#mask-2)" stroke-width="2" xlink:href="#a" filter="url(#b)"/><use stroke="#EEE" mask="url(#mask-2)" stroke-width="2" fill="#FFF" xlink:href="#a"/></g></svg>